name rise31.4854peak64.571fall78.6902.mot
datacolumns 19
datarows 30
range 6.56164900000000 6.60997300000000
endheader
time	ground_force1_vx	ground_force1_vy	ground_force1_vz	ground_force1_px	ground_force1_py	ground_force1_pz	ground_force2_vx	ground_force2_vy	ground_force2_vz	ground_force2_px	ground_force2_py	ground_force2_pz	ground_torque1_x	ground_torque1_y	ground_torque1_z	ground_torque2_x	ground_torque2_y	ground_torque2_z	
6.56164900000000	5.47816600000000	687.31583300000000	36.90570700000000	0.22248100000000	0.00000000000000	0.09229700000000	0.00000000000000	0.00000000000000	0.00000000000000	0.00000000000000	0.00000000000000	0.00000000000000	0.00000000000000	14.97877100000000	0.00000000000000	0.00000000000000	0.00000000000000	0.00000000000000	
6.56331400000000	4.86775200000000	688.81079000000000	36.89028000000000	0.22151300000000	0.00000000000000	0.09231000000000	0.00000000000000	0.00000000000000	0.00000000000000	0.00000000000000	0.00000000000000	0.00000000000000	0.00000000000000	15.05755000000000	0.00000000000000	0.00000000000000	0.00000000000000	0.00000000000000	
6.56497500000000	4.23885200000000	690.33875100000000	36.87726400000000	0.22049700000000	0.00000000000000	0.09232700000000	0.00000000000000	0.00000000000000	0.00000000000000	0.00000000000000	0.00000000000000	0.00000000000000	0.00000000000000	15.13984700000000	0.00000000000000	0.00000000000000	0.00000000000000	0.00000000000000	
6.56663900000000	3.59159100000000	691.89810699999998	36.86667900000000	0.21943500000000	0.00000000000000	0.09234900000000	0.00000000000000	0.00000000000000	0.00000000000000	0.00000000000000	0.00000000000000	0.00000000000000	0.00000000000000	15.22561500000000	0.00000000000000	0.00000000000000	0.00000000000000	0.00000000000000	
6.56831300000000	2.92617100000000	693.48730499999999	36.85855600000000	0.21832700000000	0.00000000000000	0.09237400000000	0.00000000000000	0.00000000000000	0.00000000000000	0.00000000000000	0.00000000000000	0.00000000000000	0.00000000000000	15.31481000000000	0.00000000000000	0.00000000000000	0.00000000000000	0.00000000000000	
6.56997500000000	2.24286400000000	695.10485300000005	36.85293900000000	0.21717300000000	0.00000000000000	0.09240400000000	0.00000000000000	0.00000000000000	0.00000000000000	0.00000000000000	0.00000000000000	0.00000000000000	0.00000000000000	15.40739000000000	0.00000000000000	0.00000000000000	0.00000000000000	0.00000000000000	
6.57164400000000	1.54201500000000	696.74931500000002	36.84988500000000	0.21597600000000	0.00000000000000	0.09243800000000	0.00000000000000	0.00000000000000	0.00000000000000	0.00000000000000	0.00000000000000	0.00000000000000	0.00000000000000	15.50331200000000	0.00000000000000	0.00000000000000	0.00000000000000	0.00000000000000	
6.57331400000000	0.82403700000000	698.41931799999998	36.84946000000000	0.21473600000000	0.00000000000000	0.09247600000000	0.00000000000000	0.00000000000000	0.00000000000000	0.00000000000000	0.00000000000000	0.00000000000000	0.00000000000000	15.60253200000000	0.00000000000000	0.00000000000000	0.00000000000000	0.00000000000000	
6.57497800000000	0.08941300000000	700.11354600000004	36.85174400000000	0.21345600000000	0.00000000000000	0.09251700000000	0.00000000000000	0.00000000000000	0.00000000000000	0.00000000000000	0.00000000000000	0.00000000000000	0.00000000000000	15.70500600000000	0.00000000000000	0.00000000000000	0.00000000000000	0.00000000000000	
6.57664800000000	-0.66131200000000	701.83074399999998	36.85682700000000	0.21213800000000	0.00000000000000	0.09256300000000	0.00000000000000	0.00000000000000	0.00000000000000	0.00000000000000	0.00000000000000	0.00000000000000	0.00000000000000	15.81068900000000	0.00000000000000	0.00000000000000	0.00000000000000	0.00000000000000	
6.57831300000000	-1.42753100000000	703.56971599999997	36.86481000000000	0.21078300000000	0.00000000000000	0.09261200000000	0.00000000000000	0.00000000000000	0.00000000000000	0.00000000000000	0.00000000000000	0.00000000000000	0.00000000000000	15.91953400000000	0.00000000000000	0.00000000000000	0.00000000000000	0.00000000000000	
6.57997400000000	-2.20857800000000	705.32932100000005	36.87580500000000	0.20939400000000	0.00000000000000	0.09266500000000	0.00000000000000	0.00000000000000	0.00000000000000	0.00000000000000	0.00000000000000	0.00000000000000	0.00000000000000	16.03149100000000	0.00000000000000	0.00000000000000	0.00000000000000	0.00000000000000	
6.58164500000000	-3.00373300000000	707.10847999999999	36.88993200000000	0.20797500000000	0.00000000000000	0.09272100000000	0.00000000000000	0.00000000000000	0.00000000000000	0.00000000000000	0.00000000000000	0.00000000000000	0.00000000000000	16.14650800000000	0.00000000000000	0.00000000000000	0.00000000000000	0.00000000000000	
6.58330700000000	-3.81222300000000	708.90616699999998	36.90732400000000	0.20652800000000	0.00000000000000	0.09278100000000	0.00000000000000	0.00000000000000	0.00000000000000	0.00000000000000	0.00000000000000	0.00000000000000	0.00000000000000	16.26452700000000	0.00000000000000	0.00000000000000	0.00000000000000	0.00000000000000	
6.58497700000000	-4.63323100000000	710.72141299999998	36.92812300000000	0.20505500000000	0.00000000000000	0.09284300000000	0.00000000000000	0.00000000000000	0.00000000000000	0.00000000000000	0.00000000000000	0.00000000000000	0.00000000000000	16.38549000000000	0.00000000000000	0.00000000000000	0.00000000000000	0.00000000000000	
6.58664500000000	-5.46589400000000	712.55330200000003	36.95247800000000	0.20356100000000	0.00000000000000	0.09290900000000	0.00000000000000	0.00000000000000	0.00000000000000	0.00000000000000	0.00000000000000	0.00000000000000	0.00000000000000	16.50933300000000	0.00000000000000	0.00000000000000	0.00000000000000	0.00000000000000	
6.58830700000000	-6.30931100000000	714.40096900000003	36.98054900000000	0.20204800000000	0.00000000000000	0.09297700000000	0.00000000000000	0.00000000000000	0.00000000000000	0.00000000000000	0.00000000000000	0.00000000000000	0.00000000000000	16.63598700000000	0.00000000000000	0.00000000000000	0.00000000000000	0.00000000000000	
6.58997900000000	-7.16254700000000	716.26360199999999	37.01250600000000	0.20052000000000	0.00000000000000	0.09304700000000	0.00000000000000	0.00000000000000	0.00000000000000	0.00000000000000	0.00000000000000	0.00000000000000	0.00000000000000	16.76537800000000	0.00000000000000	0.00000000000000	0.00000000000000	0.00000000000000	
6.59164600000000	-8.02463700000000	718.14043600000002	37.04852300000000	0.19898000000000	0.00000000000000	0.09312000000000	0.00000000000000	0.00000000000000	0.00000000000000	0.00000000000000	0.00000000000000	0.00000000000000	0.00000000000000	16.89742800000000	0.00000000000000	0.00000000000000	0.00000000000000	0.00000000000000	
6.59330800000000	-8.89459000000000	720.03075200000001	37.08878800000000	0.19743100000000	0.00000000000000	0.09319500000000	0.00000000000000	0.00000000000000	0.00000000000000	0.00000000000000	0.00000000000000	0.00000000000000	0.00000000000000	17.03205400000000	0.00000000000000	0.00000000000000	0.00000000000000	0.00000000000000	
6.59497700000000	-9.77139700000000	721.93387600000005	37.13349000000000	0.19587800000000	0.00000000000000	0.09327100000000	0.00000000000000	0.00000000000000	0.00000000000000	0.00000000000000	0.00000000000000	0.00000000000000	0.00000000000000	17.16916700000000	0.00000000000000	0.00000000000000	0.00000000000000	0.00000000000000	
6.59664800000000	-10.65402900000000	723.84917700000005	37.18283100000000	0.19432300000000	0.00000000000000	0.09334900000000	0.00000000000000	0.00000000000000	0.00000000000000	0.00000000000000	0.00000000000000	0.00000000000000	0.00000000000000	17.30867200000000	0.00000000000000	0.00000000000000	0.00000000000000	0.00000000000000	
6.59830500000000	-11.54145000000000	725.77606000000003	37.23701700000000	0.19277000000000	0.00000000000000	0.09342900000000	0.00000000000000	0.00000000000000	0.00000000000000	0.00000000000000	0.00000000000000	0.00000000000000	0.00000000000000	17.45046900000000	0.00000000000000	0.00000000000000	0.00000000000000	0.00000000000000	
6.59998100000000	-12.43261400000000	727.71397000000002	37.29625900000000	0.19122100000000	0.00000000000000	0.09350900000000	0.00000000000000	0.00000000000000	0.00000000000000	0.00000000000000	0.00000000000000	0.00000000000000	0.00000000000000	17.59445200000000	0.00000000000000	0.00000000000000	0.00000000000000	0.00000000000000	
6.60164300000000	-13.32647500000000	729.66238299999998	37.36077600000000	0.18968100000000	0.00000000000000	0.09359100000000	0.00000000000000	0.00000000000000	0.00000000000000	0.00000000000000	0.00000000000000	0.00000000000000	0.00000000000000	17.74051000000000	0.00000000000000	0.00000000000000	0.00000000000000	0.00000000000000	
6.60331200000000	-14.22198900000000	731.62080700000001	37.43079000000000	0.18815300000000	0.00000000000000	0.09367300000000	0.00000000000000	0.00000000000000	0.00000000000000	0.00000000000000	0.00000000000000	0.00000000000000	0.00000000000000	17.88852600000000	0.00000000000000	0.00000000000000	0.00000000000000	0.00000000000000	
6.60497200000000	-15.11811700000000	733.58877700000005	37.50652900000000	0.18663800000000	0.00000000000000	0.09375600000000	0.00000000000000	0.00000000000000	0.00000000000000	0.00000000000000	0.00000000000000	0.00000000000000	0.00000000000000	18.03837900000000	0.00000000000000	0.00000000000000	0.00000000000000	0.00000000000000	
6.60664200000000	-16.01383400000000	735.56585399999994	37.58822400000000	0.18514100000000	0.00000000000000	0.09383900000000	0.00000000000000	0.00000000000000	0.00000000000000	0.00000000000000	0.00000000000000	0.00000000000000	0.00000000000000	18.18994000000000	0.00000000000000	0.00000000000000	0.00000000000000	0.00000000000000	
6.60830800000000	-16.90812700000000	737.55161799999996	37.67610800000000	0.18366400000000	0.00000000000000	0.09392200000000	0.00000000000000	0.00000000000000	0.00000000000000	0.00000000000000	0.00000000000000	0.00000000000000	0.00000000000000	18.34307900000000	0.00000000000000	0.00000000000000	0.00000000000000	0.00000000000000	
6.60997300000000	-17.80000500000000	739.54566599999998	37.77041600000000	0.18220900000000	0.00000000000000	0.09400600000000	0.00000000000000	0.00000000000000	0.00000000000000	0.00000000000000	0.00000000000000	0.00000000000000	0.00000000000000	18.49765700000000	0.00000000000000	0.00000000000000	0.00000000000000	0.00000000000000	
